<?xml version="1.0" standalone="no"?>
<!DOCTYPE svg PUBLIC "-//W3C//DTD SVG 20010904//EN"
 "http://www.w3.org/TR/2001/REC-SVG-20010904/DTD/svg10.dtd">
<svg version="1.0" xmlns="http://www.w3.org/2000/svg"
 width="199.000000pt" height="199.000000pt" viewBox="0 0 199.000000 199.000000"
 preserveAspectRatio="xMidYMid meet">
<metadata>
Created by potrace 1.11, written by Peter Selinger 2001-2013
</metadata>
<g transform="translate(0.000000,199.000000) scale(0.100000,-0.100000)"
fill="#000000" stroke="none">
<path d="M1581 1759 c-31 -12 -51 -65 -39 -100 13 -38 31 -51 73 -51 42 0 60
13 73 52 22 62 -43 122 -107 99z"/>
<path d="M333 1669 c-27 -10 -46 -44 -45 -82 1 -23 -2 -26 -13 -17 -16 13 -77
16 -95 5 -23 -14 -38 -67 -28 -96 12 -34 26 -46 58 -52 59 -11 109 48 88 102
-9 24 -8 24 10 8 23 -21 85 -25 106 -8 26 22 35 64 21 98 -7 17 -17 33 -22 36
-18 11 -58 14 -80 6z"/>
<path d="M1762 1557 c-27 -29 -28 -67 -2 -109 22 -35 57 -140 67 -198 3 -19 6
-69 6 -110 1 -135 -53 -202 -176 -216 -76 -9 -88 -3 -77 36 20 71 29 242 15
310 -6 33 -40 60 -77 60 -22 0 -38 -10 -61 -36 -32 -36 -128 -122 -222 -199
-105 -85 -118 -100 -118 -134 0 -42 23 -63 103 -93 36 -14 83 -32 104 -40 l40
-15 -39 -36 c-47 -43 -108 -62 -169 -53 -37 6 -49 13 -66 40 -11 19 -35 45
-54 59 -18 14 -39 39 -45 55 -13 31 -47 52 -85 52 -37 0 -74 -37 -89 -88 l-14
-47 -59 -5 c-54 -5 -126 1 -180 14 -27 7 -67 43 -61 53 3 5 40 26 82 48 99 50
135 83 135 124 0 37 -38 81 -69 81 -24 0 -70 -19 -94 -39 -25 -21 -32 -7 -19
38 25 81 25 127 0 156 -65 75 -357 6 -481 -113 -97 -94 -64 -254 68 -325 33
-18 56 -22 131 -22 l91 1 22 -41 c49 -90 159 -134 353 -139 l53 -1 2 -45 c6
-105 62 -227 130 -284 63 -53 171 -73 230 -42 30 15 74 61 93 96 20 37 22 111
6 165 -8 27 -14 50 -13 51 1 1 27 9 57 17 79 23 144 68 192 134 l43 58 100 0
c169 0 267 51 324 167 34 71 42 105 45 198 4 129 -57 349 -115 411 -34 36 -77
39 -107 6z m-1403 -503 c-10 -42 -20 -78 -22 -80 -2 -3 -31 -7 -64 -10 -53 -6
-62 -4 -87 18 -21 18 -27 30 -22 45 9 29 146 100 197 102 15 1 15 -6 -2 -75z
m1080 -26 c-4 -24 -8 -49 -9 -55 0 -16 -26 -16 -64 0 l-29 13 53 42 c29 23 54
42 55 42 1 0 -1 -19 -6 -42z m-429 -459 c46 -72 67 -126 52 -141 -13 -13 -44
4 -64 34 -29 45 -56 168 -37 168 5 0 27 -27 49 -61z"/>
</g>
</svg>
