<?xml version="1.0" encoding="UTF-8"?>
<svg width="26px" height="31px" viewBox="0 0 26 31" version="1.1" xmlns="http://www.w3.org/2000/svg" xmlns:xlink="http://www.w3.org/1999/xlink">
    <!-- Generator: Sketch 48.2 (47327) - http://www.bohemiancoding.com/sketch -->
    <title>Bag</title>
    <desc>Created with Sketch.</desc>
    <defs></defs>
    <g id="Store" stroke="none" stroke-width="1" fill="none" fill-rule="evenodd" transform="translate(-1190.000000, -17.000000)">
        <g transform="translate(226.000000, 12.000000)" id="Header">
            <g transform="translate(5.000000, 0.000000)">
                <g id="Bag" transform="translate(959.000000, 5.000000)">
                    <g id="MSP_Bag_Empty_1_" transform="translate(0.000000, 5.000000)" fill="#111111" fill-rule="nonzero">
                        <path d="M2.29411765,0 C1.02470588,0 0,1.02470588 0,2.29411765 L0,23.7058824 C0,24.9752941 1.02470588,26 2.29411765,26 L23.7058824,26 C24.9752941,26 26,24.9752941 26,23.7058824 L26,2.29411765 C26,1.02470588 24.9752941,0 23.7058824,0 L2.29411765,0 Z M24.4705882,23.7058824 C24.4705882,24.1341176 24.1341176,24.4705882 23.7058824,24.4705882 L2.29411765,24.4705882 C1.86588235,24.4705882 1.52941176,24.1341176 1.52941176,23.7058824 L1.52941176,2.29411765 C1.52941176,1.86588235 1.86588235,1.52941176 2.29411765,1.52941176 L23.7058824,1.52941176 C24.1341176,1.52941176 24.4705882,1.86588235 24.4705882,2.29411765 L24.4705882,23.7058824 Z" id="Shape"></path>
                    </g>
                    <path d="M19,7 L6,7 L6,6.22222222 C6,2.38 9.37878788,0 12.5,0 C15.6212121,0 19,2.38 19,6.22222222 L19,7 Z M7.57575758,5.44444444 L17.4242424,5.44444444 C17,3.01777778 14.6818182,1.55555556 12.5,1.55555556 C10.3181818,1.55555556 8,3.01777778 7.57575758,5.44444444 Z" id="Shape" fill="#111111" fill-rule="nonzero"></path>
                    <circle id="Oval" fill="#8D0E20" cx="13" cy="18" r="7"></circle>
                </g>
            </g>
        </g>
    </g>
</svg>