<?xml version="1.0" encoding="UTF-8"?>
<svg width="230px" height="182px" viewBox="0 0 230 182" version="1.1" xmlns="http://www.w3.org/2000/svg" xmlns:xlink="http://www.w3.org/1999/xlink">
    <!-- Generator: Sketch 47.1 (45422) - http://www.bohemiancoding.com/sketch -->
    <title>Logo</title>
    <desc>Created with Sketch.</desc>
    <defs>
        <filter x="-11.2%" y="-11.8%" width="122.4%" height="128.3%" filterUnits="objectBoundingBox" id="filter-1">
            <feOffset dx="0" dy="2" in="SourceAlpha" result="shadowOffsetOuter1"></feOffset>
            <feGaussianBlur stdDeviation="7.5" in="shadowOffsetOuter1" result="shadowBlurOuter1"></feGaussianBlur>
            <feColorMatrix values="0 0 0 0 0   0 0 0 0 0   0 0 0 0 0  0 0 0 0.15 0" type="matrix" in="shadowBlurOuter1" result="shadowMatrixOuter1"></feColorMatrix>
            <feMerge>
                <feMergeNode in="shadowMatrixOuter1"></feMergeNode>
                <feMergeNode in="SourceGraphic"></feMergeNode>
            </feMerge>
        </filter>
    </defs>
    <g id="Desktop" stroke="none" stroke-width="1" fill="none" fill-rule="evenodd">
        <g id="Landing" transform="translate(-607.000000, -279.000000)" fill-rule="nonzero" stroke="#FFFFFF" fill="#FFFFFF">
            <g transform="translate(75.000000, 75.000000)" id="Video-overlay">
                <g>
                    <g filter="url(#filter-1)" transform="translate(524.000000, 217.000000)">
                        <g id="Logo" transform="translate(23.000000, 0.000000)">
                            <path d="M121.279216,118.860404 C123.137302,122.986477 124.441758,127.223803 124.892139,131.475647 C126.251735,144.740973 114.564993,155.011869 100.73761,151.19397 C82.8666617,146.247646 76.3479065,129.484415 77.0508508,112.991628 C75.2102395,113.014194 73.3679556,112.991158 71.5257222,112.922336 C62.3737093,112.450126 51.4181238,111.594244 43.3691222,106.916411 C35.7821929,102.489439 33.1588146,94.6979692 33.8742814,86.3605059 C35.097823,75.0214846 37.4341218,63.8274159 40.8500828,52.9368699 L46.3651394,62.5286418 C39.1508491,60.2561297 32.63712,62.868043 26.1681076,66.1587586 C21.1449344,68.7264021 10.5023656,73.5813144 19.1923062,79.2478381 C25.3632075,83.3058955 35.677854,79.1002724 41.7593219,76.6801945 C48.5338279,73.8938031 54.9690393,70.3593704 60.9427757,66.144002 C69.2898884,60.418452 77.0407789,74.0240115 68.7532883,79.7200484 C51.850385,91.3482273 13.0512161,109.484055 1.55903051,81.5351068 C-3.31508713,69.6413096 3.91410876,60.6840703 13.900833,54.9732768 C25.0501907,48.5836811 37.6751988,43.3598545 50.5536014,47.447425 C54.6981046,48.6563826 57.1346044,52.8939368 56.068658,57.0391969 C53.7910343,64.7166391 51.9547068,72.5156931 50.5685069,80.3988507 C49.3313456,87.6443277 47.6917341,93.01572 56.2028081,95.1554229 C63.9250387,97.0930322 71.9442018,97.7122547 79.9192022,97.3018365 C81.1947119,93.4621482 82.8537948,89.8987943 84.8274421,86.8137199 L84.8419059,86.8885807 C90.3793326,78.1710853 102.880248,85.6691806 101.41495,94.1056363 C100.734398,94.1019573 100.016545,94.1867462 99.2649666,94.3733246 C95.6629314,95.2676869 91.9895121,95.9873359 88.2799952,96.5024009 C90.8572295,91.2983503 98.8612674,88.3593704 104.078746,94.1650462 C104.309643,94.4222692 104.541274,94.6816456 104.773476,94.9431232 C106.45368,95.8429542 107.694471,97.3828592 108.382551,99.1408142 C109.455306,100.433487 110.522553,101.764749 111.568652,103.129564 C112.038597,103.183699 112.525863,103.285502 113.029115,103.43987 C123.974893,106.795036 134.489384,99.398758 139.516113,89.8700855 C145.866449,77.940605 145.107978,63.3419033 144.765923,50.1449155 L157.288131,55.3491514 C147.067065,67.1475222 135.323967,77.5280073 122.368719,86.2166821 L120.613825,72.7960166 C136.333509,78.4177842 159.771752,91.2419758 175.833491,80.6992974 C184.295648,75.152089 184.265904,64.2813499 183.492561,55.185121 C182.73399,45.8341421 179.722961,36.8075414 174.718093,28.8806166 L174.762709,28.8955284 C169.706235,20.8282173 182.406907,13.4468512 187.433636,21.4396031 C198.810702,39.5276779 206.142589,73.347755 188.117748,89.7507907 C167.624158,108.375692 138.66841,94.8208199 116.732238,86.9771865 C113.965222,86.1108829 111.952505,83.7112724 111.57567,80.8293981 C111.198834,77.9475238 112.526579,75.1087676 114.977345,73.556521 C126.847684,65.4850579 137.590821,55.8615247 146.92236,44.9406797 C151.264978,39.915386 159.295848,44.1801753 159.444568,50.1449155 C159.890727,67.8452822 159.935343,87.528925 148.840845,102.440776 C142.129183,111.36275 132.115581,117.843514 121.279212,118.860405 Z M94.7331257,111.359384 C94.9219057,111.326617 95.1106075,111.293361 95.2992291,111.259617 C94.6719313,117.709358 96.1311919,124.311619 100.303697,129.649045 C102.429874,132.373976 106.175995,135.937348 105.872256,130.607262 C105.756545,128.4363 103.210918,124.543541 102.183989,122.65705 C99.9814839,118.696002 97.4900778,114.919353 94.7331257,111.359384 Z" id="Combined-Shape"></path>
                            <path d="M161.502949,15 C171.491151,15 171.50688,0 161.502949,0 C151.499017,0 151.499017,15 161.502949,15" id="Shape"></path>
                            <path d="M22.5,33 C32.4921306,33 32.5078663,18 22.5,18 C12.4921337,18 12.5078694,33 22.5,33" id="Shape"></path>
                            <path d="M36.5029487,24 C46.4911508,24 46.5068803,9 36.5029487,9 C26.4990171,9 26.4990171,24 36.5029487,24" id="Shape"></path>
                        </g>
                    </g>
                </g>
            </g>
        </g>
    </g>
</svg>